HIERARCHY
ROOT root
{
	OFFSET 0.000000 0.000000 0.000000
	CHANNELS 6 Xposition Yposition Zposition Zrotation Yrotation Xrotation
	JOINT lhip
	{
		OFFSET 0.058581 -0.082280 -0.017664
		CHANNELS 3 Zrotation Yrotation Xrotation
		JOINT lknee
		{
			OFFSET 0.043451 -0.386469 0.008037
			CHANNELS 3 Zrotation Yrotation Xrotation
			JOINT lankle
			{
				OFFSET -0.014790 -0.426874 -0.037428
				CHANNELS 3 Zrotation Yrotation Xrotation
				JOINT ltoe
				{
					OFFSET 0.041054 -0.060286 0.122042
					CHANNELS 3 Zrotation Yrotation Xrotation
					End Site
					{
						OFFSET 0.000000 0.000000 0.000000
					}
				}
			}
		}
	}
	JOINT rhip
	{
		OFFSET -0.060310 -0.090513 -0.013543
		CHANNELS 3 Zrotation Yrotation Xrotation
		JOINT rknee
		{
			OFFSET -0.043257 -0.383688 -0.004843
			CHANNELS 3 Zrotation Yrotation Xrotation
			JOINT rankle
			{
				OFFSET 0.019056 -0.420046 -0.034562
				CHANNELS 3 Zrotation Yrotation Xrotation
				JOINT rtoe
				{
					OFFSET -0.034840 -0.062106 0.130323
					CHANNELS 3 Zrotation Yrotation Xrotation
					End Site
					{
						OFFSET 0.000000 0.000000 0.000000
					}
				}
			}
		}
	}
	JOINT lowerback
	{
		OFFSET 0.004439 0.124404 -0.038385
		CHANNELS 3 Zrotation Yrotation Xrotation
		JOINT upperback
		{
			OFFSET 0.004488 0.137956 0.026820
			CHANNELS 3 Zrotation Yrotation Xrotation
			JOINT chest
			{
				OFFSET -0.002265 0.056032 0.002855
				CHANNELS 3 Zrotation Yrotation Xrotation
				JOINT lowerneck
				{
					OFFSET -0.013390 0.211636 -0.033468
					CHANNELS 3 Zrotation Yrotation Xrotation
					JOINT upperneck
					{
						OFFSET 0.010113 0.088937 0.050410
						CHANNELS 3 Zrotation Yrotation Xrotation
						End Site
						{
							OFFSET 0.000000 0.000000 0.000000
						}
					}
				}
				JOINT lclavicle
				{
					OFFSET 0.071702 0.114000 -0.018898
					CHANNELS 3 Zrotation Yrotation Xrotation
					JOINT lshoulder
					{
						OFFSET 0.122921 0.045205 -0.019046
						CHANNELS 3 Zrotation Yrotation Xrotation
						JOINT lelbow
						{
							OFFSET 0.255332 -0.015649 -0.022946
							CHANNELS 3 Zrotation Yrotation Xrotation
							JOINT lwrist
							{
								OFFSET 0.265709 0.012698 -0.007375
								CHANNELS 3 Zrotation Yrotation Xrotation
								End Site
								{
									OFFSET 0.000000 0.000000 0.000000
								}
							}
						}
					}
				}
				JOINT rclavicle
				{
					OFFSET -0.082954 0.112472 -0.023707
					CHANNELS 3 Zrotation Yrotation Xrotation
					JOINT rshoulder
					{
						OFFSET -0.113228 0.046853 -0.008472
						CHANNELS 3 Zrotation Yrotation Xrotation
						JOINT relbow
						{
							OFFSET -0.260127 -0.014369 -0.031269
							CHANNELS 3 Zrotation Yrotation Xrotation
							JOINT rwrist
							{
								OFFSET -0.269108 0.006794 -0.006027
								CHANNELS 3 Zrotation Yrotation Xrotation
								End Site
								{
									OFFSET 0.000000 0.000000 0.000000
								}
							}
						}
					}
				}
			}
		}
	}
}
MOTION
Frames: 8
Frame Time: 0.033333
0.071385 0.146195 0.966454 178.070975 1.767740 92.986390 12.699177 11.101447 -22.247498 -9.059477 -0.120179 27.976714 -3.222687 11.781162 -10.887999 0.000000 -0.000000 0.000000 -3.242623 -1.232284 -27.742034 8.979332 3.612890 36.676483 1.051379 -8.421362 -13.254435 0.000000 -0.000000 0.000000 -0.940079 -2.552902 34.213072 6.269485 -9.217675 6.552499 7.930871 -2.518382 -6.662171 -14.956442 22.476689 -22.883119 -2.224136 12.006799 -24.430271 -9.348665 -40.458958 3.785541 -37.058498 -28.926962 7.705103 2.963416 -3.119074 28.855663 -11.926667 -8.520531 17.104753 16.492640 30.982042 5.814467 35.006749 11.930235 -5.826696 -5.419072 19.779595 -10.446567 22.558199 15.152451 -27.813582 
0.071967 0.149318 0.971698 179.570165 1.553975 93.263477 12.213774 9.211734 -21.680522 -8.051926 0.097407 26.361790 -3.613001 11.177918 -10.465697 0.000000 -0.000000 0.000000 -3.616487 -1.445438 -26.707290 7.902693 2.107111 35.295843 0.752152 -7.663038 -13.068192 0.000000 -0.000000 0.000000 -0.702703 -2.780042 33.643320 7.004668 -10.587557 5.277271 8.640340 -4.476931 -6.139804 -15.895555 24.380911 -23.201288 -3.337822 12.364353 -24.087723 -8.000236 -42.096708 2.831109 -41.987843 -36.694036 5.807897 1.531649 -8.140914 9.056321 -15.653614 -12.092275 8.558266 14.994075 29.537113 5.346653 40.408322 6.070253 -2.640176 -5.839197 23.978975 -6.821854 29.929469 18.807381 -20.750893 
0.071961 0.153702 0.974689 -179.010375 1.533931 93.677510 11.903669 8.105295 -21.316279 -7.250595 0.069457 24.810461 -4.026040 10.622645 -9.997170 0.000000 -0.000000 0.000000 -3.770226 -1.844052 -25.866712 7.402848 1.239319 33.832777 0.072789 -7.529382 -12.906794 0.000000 -0.000000 0.000000 -0.967337 -3.340778 33.027642 7.732558 -11.924458 4.350699 9.069129 -5.181857 -5.755578 -16.441162 25.142902 -23.370586 -3.688777 12.879410 -23.666171 -7.551403 -42.648374 1.262678 -48.259643 -45.246815 8.791790 -0.975341 -12.718018 -3.677189 -15.623121 -14.508567 -3.732945 13.590774 27.394237 4.111157 43.809436 -0.275967 0.496451 -5.317493 25.943730 -6.848138 30.220734 20.315044 -22.334882 
0.072039 0.157277 0.975941 -177.689756 1.820049 94.104153 11.960084 7.674751 -21.279253 -6.663911 -0.228533 23.826305 -4.980414 9.830178 -9.627323 0.000000 -0.000000 0.000000 -3.555215 -2.099032 -25.258080 6.994772 0.483321 32.628633 0.444327 -7.514930 -12.442011 0.000000 -0.000000 0.000000 -1.776740 -4.475056 33.095834 8.639634 -13.332192 2.440843 9.472159 -5.346817 -4.682217 -17.528862 25.902801 -23.032708 -3.463955 13.585830 -23.923596 -6.123306 -43.220416 -0.635037 -56.657149 -54.429936 14.989667 -2.467359 -14.112443 -9.605132 -15.364581 -15.998576 -9.542902 11.876016 23.150632 2.566894 45.332866 -4.093385 0.884565 -3.465389 25.954438 -4.932295 29.513630 18.981825 -22.011270 
0.072752 0.160360 0.976982 -176.946346 2.089778 94.709448 12.283361 7.702259 -21.530123 -6.436380 -0.224178 23.433594 -5.756027 8.794772 -9.708662 0.000000 -0.000000 0.000000 -3.287997 -2.137481 -25.173369 6.713703 -0.075268 32.003301 0.542401 -7.582421 -12.451300 0.000000 -0.000000 0.000000 -2.600607 -6.180823 33.937922 8.819209 -14.580344 -1.764579 9.750282 -5.458986 -2.601930 -19.263789 27.394188 -21.844761 -2.702712 14.215882 -24.988434 -1.890290 -45.068438 -3.364109 -66.029613 -61.533911 24.512708 -1.918801 -15.712499 -10.161247 -13.899204 -17.423220 -11.623621 9.307535 19.296704 1.670600 46.915002 -7.258895 -0.038447 -3.064996 24.390044 -2.387555 27.401332 17.194331 -22.423760 
0.072363 0.163378 0.976020 -176.293273 2.560637 94.648983 12.809162 7.628263 -21.256102 -6.869280 -1.484124 22.978398 -5.796395 9.443665 -9.413693 0.000000 -0.000000 0.000000 -2.691848 -2.261293 -24.690031 6.826244 0.307915 31.499632 0.216105 -8.643347 -12.089090 0.000000 -0.000000 0.000000 -3.599783 -5.185290 33.040549 10.457286 -15.388363 1.092946 10.693776 -7.254474 -3.956317 -20.742215 29.794161 -22.597836 -3.943210 13.800329 -24.590098 6.360413 -47.271505 -8.254882 -70.695810 -68.785145 30.670594 -0.684278 -21.004242 -9.250199 -10.773120 -16.781070 -13.706810 4.946073 16.429910 -1.412786 47.576756 -10.744105 0.851079 -5.045507 23.350531 -2.150467 21.947758 14.359239 -26.199044 
0.072502 0.166259 0.975663 -175.651517 2.747320 94.866671 12.973200 7.690106 -21.381369 -7.068672 -2.348654 22.809932 -5.948675 9.521856 -9.403711 0.000000 -0.000000 0.000000 -2.271309 -2.600222 -24.656514 6.872832 0.751540 31.372680 -0.005846 -9.744276 -12.008908 0.000000 -0.000000 0.000000 -4.488033 -5.512121 33.513651 11.280576 -16.376055 -0.509252 11.297520 -8.464746 -3.308616 -22.195612 30.672838 -21.621349 -4.346197 14.953487 -25.250738 10.715894 -47.319032 -10.440091 -71.449230 -73.291966 33.787441 0.113347 -31.572416 -7.849839 -7.129520 -14.069609 -16.162115 2.400497 13.048907 -2.804954 46.146400 -12.700375 -0.077669 -8.819500 22.702142 -4.115722 17.689090 11.766970 -28.910740 
0.072620 0.168857 0.974866 -175.291864 2.877866 94.864376 13.157558 7.800566 -21.339071 -7.272922 -2.927651 22.851619 -5.931788 9.494212 -9.595860 0.000000 -0.000000 0.000000 -2.179680 -2.860893 -24.372893 7.061339 0.878618 31.004080 -0.215769 -10.076127 -11.718531 0.000000 -0.000000 0.000000 -5.380117 -6.145290 33.109376 11.618699 -17.752712 0.538317 11.333565 -8.678772 -3.814231 -22.983153 31.730082 -21.163868 -4.562865 16.243648 -24.951740 12.575713 -45.636370 -11.022607 -65.749456 -76.688711 31.448966 -0.437983 -44.373021 -6.080477 -5.008521 -14.753513 -22.015392 0.563486 9.326076 -4.390059 44.261844 -13.184668 -1.601791 -14.084408 23.505934 -12.048223 12.899248 10.667755 -35.700742 
